<?xml version="1.0" encoding="UTF-8" standalone="no"?><!DOCTYPE svg PUBLIC "-//W3C//DTD SVG 1.1//EN" "http://www.w3.org/Graphics/SVG/1.1/DTD/svg11.dtd"><svg width="100%" height="100%" viewBox="0 0 300 300" version="1.1" xmlns="http://www.w3.org/2000/svg" xmlns:xlink="http://www.w3.org/1999/xlink" xml:space="preserve" style="fill-rule:evenodd;clip-rule:evenodd;stroke-linecap:round;stroke-linejoin:round;stroke-miterlimit:1.5;"><path d="M200,100l0,100l-100,0l0,-100l100,0Zm-45,45l0,-35l-10,0l0,35l-35,0l0,10l35,0l0,35l10,0l0,-35l35,0l0,-10l-35,0Z" style="fill:#fff;stroke:#fff;stroke-width:0.5px;"/><path d="M100,0l0,100l-100,0l0,-33.697c4.315,-37.303 36.047,-66.303 74.5,-66.303l25.5,0Z" style="fill:#fff;stroke:#fff;stroke-width:0.5px;"/><path d="M224.5,0c41.394,0 75,33.607 75,75l0,25l-99.5,0l0,-100l24.5,0Z" style="fill:#fff;stroke:#fff;stroke-width:0.5px;"/><path d="M299.5,200l0,25c0,41.393 -33.606,75 -75,75l-24.5,0l0,-100l99.5,0Z" style="fill:#fff;stroke:#fff;stroke-width:0.5px;"/><path d="M100,300l-25.5,0c-38.453,0 -70.185,-29 -74.5,-66.303l0,-33.697l100,0l0,100Z" style="fill:#fff;stroke:#fff;stroke-width:0.5px;"/></svg>