<?xml version="1.0" encoding="UTF-8" standalone="no"?><!DOCTYPE svg PUBLIC "-//W3C//DTD SVG 1.1//EN" "http://www.w3.org/Graphics/SVG/1.1/DTD/svg11.dtd"><svg width="100%" height="100%" viewBox="0 0 512 512" version="1.1" xmlns="http://www.w3.org/2000/svg" xmlns:xlink="http://www.w3.org/1999/xlink" xml:space="preserve" style="fill-rule:evenodd;clip-rule:evenodd;stroke-linejoin:round;stroke-miterlimit:1.41421;"><path d="M339.627,218.5l0,98.81l-191.064,0l0,-98.81l191.064,0Zm-92.592,46.726l0,-26.786l-5.879,0l0,26.786l-26.455,0l0,5.953l26.455,0l0,26.785l5.879,0l0,-26.785l26.455,0l0,-5.953l-26.455,0Z" style="fill:#fff;"/><path d="M429.28,218.5l12.052,0c0,8.213 6.586,14.881 14.697,14.881c8.112,0 14.697,-6.668 14.698,-14.881l11.463,0l0,149.144c0,23.797 -19.081,43.118 -42.585,43.118l-391.019,0c-23.504,0 -42.586,-19.321 -42.586,-43.118l0,-199.478c0,-23.798 19.082,-43.118 42.586,-43.118l291.041,0l0,9.226c-8.111,0 -14.697,6.668 -14.697,14.881c0,8.213 6.586,14.881 14.697,14.881l0,11.607l-280.717,0l0,184.524l370.37,0l0,-141.667Z" style="fill:#fff;"/><path d="M363.437,101.238l99.977,0c23.504,0 42.586,19.321 42.586,43.118l0,50.334l-11.464,0c0,8.214 -6.586,14.881 -14.697,14.881c-8.112,0 -14.697,-6.667 -14.697,-14.881l-12.052,0l0,-42.857l-89.653,0l0,-11.607c-8.112,0 -14.697,-6.668 -14.697,-14.881c0,-8.213 6.585,-14.881 14.697,-14.881l0,-9.226Z" style="fill:#fff;"/></svg>