<?xml version="1.0" encoding="UTF-8" standalone="no"?><!DOCTYPE svg PUBLIC "-//W3C//DTD SVG 1.1//EN" "http://www.w3.org/Graphics/SVG/1.1/DTD/svg11.dtd"><svg width="100%" height="100%" viewBox="0 0 512 512" version="1.1" xmlns="http://www.w3.org/2000/svg" xmlns:xlink="http://www.w3.org/1999/xlink" xml:space="preserve" style="fill-rule:evenodd;clip-rule:evenodd;stroke-linecap:round;stroke-linejoin:round;stroke-miterlimit:1.5;"><path d="M239.727,230.475l30.242,52.381" style="fill:none;stroke:#fff;stroke-width:5px;"/><path d="M281.038,241.544l-52.381,30.242" style="fill:none;stroke:#fff;stroke-width:5px;"/><path d="M65.423,308.411l328.95,-189.919" style="fill:none;stroke:#fff;stroke-width:5px;"/><path d="M115.322,394.839l328.95,-189.919" style="fill:none;stroke:#fff;stroke-width:5px;"/><path d="M404.013,62.366c-10.955,-18.975 -35.255,-25.486 -54.231,-14.531l-320.949,185.3c-18.976,10.956 -25.487,35.256 -14.531,54.231l93.685,162.268c10.955,18.975 35.255,25.486 54.231,14.531l320.949,-185.3c18.976,-10.956 25.487,-35.256 14.531,-54.231l-93.685,-162.268Z" style="fill:none;stroke:#fff;stroke-width:5px;"/><path d="M122.479,223.969l94.5,163.679" style="fill:none;stroke:#fff;stroke-width:5px;"/><path d="M292.716,125.683l94.5,163.679" style="fill:none;stroke:#fff;stroke-width:5px;"/><path d="M374.377,78.536l-331.254,191.25l94.5,163.678l331.254,-191.25l-94.5,-163.678Z" style="fill:none;stroke:#fff;stroke-width:5px;"/></svg>