<?xml version="1.0" encoding="UTF-8" standalone="no"?><!DOCTYPE svg PUBLIC "-//W3C//DTD SVG 1.1//EN" "http://www.w3.org/Graphics/SVG/1.1/DTD/svg11.dtd"><svg width="100%" height="100%" viewBox="0 0 512 512" version="1.1" xmlns="http://www.w3.org/2000/svg" xmlns:xlink="http://www.w3.org/1999/xlink" xml:space="preserve" style="fill-rule:evenodd;clip-rule:evenodd;stroke-linecap:round;stroke-linejoin:round;stroke-miterlimit:1.5;"><path d="M254.522,222.398l0,67.204" style="fill:none;stroke:#fff;stroke-width:5px;"/><path d="M288.124,256l-67.205,0" style="fill:none;stroke:#fff;stroke-width:5px;"/><path d="M43.5,200.556l422.043,0" style="fill:none;stroke:#fff;stroke-width:5px;"/><path d="M43.5,311.444l422.043,0" style="fill:none;stroke:#fff;stroke-width:5px;"/><path d="M506,151.905c0,-24.345 -19.765,-44.11 -44.111,-44.11l-411.778,0c-24.346,0 -44.111,19.765 -44.111,44.11l0,208.19c0,24.345 19.765,44.11 44.111,44.11l411.778,0c24.346,0 44.111,-19.765 44.111,-44.11l0,-208.19Z" style="fill:none;stroke:#fff;stroke-width:5px;"/><path d="M145.315,151l0,210" style="fill:none;stroke:#fff;stroke-width:5px;"/><path d="M363.728,151l0,210" style="fill:none;stroke:#fff;stroke-width:5px;"/><rect x="43.5" y="151" width="425" height="210" style="fill:none;stroke:#fff;stroke-width:5px;"/></svg>