<?xml version="1.0" encoding="UTF-8" standalone="no"?><!DOCTYPE svg PUBLIC "-//W3C//DTD SVG 1.1//EN" "http://www.w3.org/Graphics/SVG/1.1/DTD/svg11.dtd"><svg width="100%" height="100%" viewBox="0 0 512 512" version="1.1" xmlns="http://www.w3.org/2000/svg" xmlns:xlink="http://www.w3.org/1999/xlink" xml:space="preserve" style="fill-rule:evenodd;clip-rule:evenodd;stroke-linejoin:round;stroke-miterlimit:1.41421;"><path d="M308.228,189.139l44.464,77.015l-148.92,85.979l-44.464,-77.015l148.92,-85.979Zm-51.142,78.086l-12.054,-20.877l-4.582,2.646l12.054,20.877l-20.62,11.905l2.678,4.639l20.62,-11.905l12.054,20.878l4.582,-2.646l-12.054,-20.877l20.62,-11.905l-2.679,-4.639l-20.619,11.904Z" style="fill:#fff;"/><path d="M378.105,148.795l9.394,-5.423c3.696,6.402 11.829,8.635 18.152,4.985c6.322,-3.65 8.454,-11.81 4.759,-18.212l8.935,-5.159l67.115,116.246c10.708,18.548 4.53,42.194 -13.79,52.771l-304.769,175.958c-18.319,10.577 -41.886,4.105 -52.595,-14.443l-89.766,-155.478c-10.708,-18.548 -4.53,-42.194 13.79,-52.771l226.844,-130.969l4.152,7.192c-6.322,3.65 -8.455,11.81 -4.759,18.212c3.696,6.401 11.829,8.635 18.152,4.985l5.223,9.046l-218.797,126.323l83.035,143.822l288.675,-166.666l-63.75,-110.419Z" style="fill:#fff;"/><path d="M274.018,87.028l77.924,-44.989c18.32,-10.577 41.887,-4.105 52.596,14.443l22.65,39.232l-8.935,5.159c3.696,6.401 1.563,14.562 -4.759,18.212c-6.322,3.65 -14.456,1.417 -18.152,-4.985l-9.393,5.423l-19.286,-33.403l-69.878,40.344l-5.223,-9.047c-6.322,3.65 -14.456,1.416 -18.152,-4.985c-3.695,-6.402 -1.563,-14.562 4.759,-18.212l-4.151,-7.192Z" style="fill:#fff;"/></svg>